<svg width="78" height="78" viewBox="0 0 78 78" fill="none" xmlns="http://www.w3.org/2000/svg">
<g filter="url(#filter0_ii)">
<rect width="78" height="78" rx="16.9565" fill="url(#paint0_linear)"/>
<rect width="78" height="78" rx="16.9565" fill="url(#paint1_linear)" fill-opacity="0.2" style="mix-blend-mode:soft-light"/>
</g>
<g filter="url(#filter1_ii)">
<path d="M54.3784 37.3839C53.0573 37.0344 51.9822 36.0673 51.4989 34.7891C51.019 33.5223 50.3494 32.3281 49.5067 31.2511C48.6748 30.1837 47.6894 29.2453 46.5826 28.4665C44.2891 26.8538 41.5882 26 38.7701 26C35.952 26 33.2511 26.8538 30.9576 28.4665C29.8508 29.2453 28.8654 30.1836 28.0335 31.2511C27.1938 32.3226 26.5221 33.5155 26.0413 34.7891C25.5547 36.0705 24.4769 37.0375 23.1507 37.3839C21.6904 37.7779 20.3966 38.6333 19.4621 39.8225C18.5103 41.0373 17.9953 42.5372 18 44.0804C18 45.9275 18.7199 47.6685 20.0257 48.9743C21.3315 50.2801 23.067 51 24.9141 51H52.6038C54.4509 51 56.1864 50.2801 57.4922 48.9743C58.1364 48.3329 58.6472 47.5701 58.9948 46.7301C59.3425 45.8901 59.5203 44.9895 59.5179 44.0804C59.5179 40.9442 57.4085 38.1931 54.3784 37.3839Z" fill="white"/>
</g>
<defs>
<filter id="filter0_ii" x="-0.608733" y="-0.608733" width="79.2175" height="79.2175" filterUnits="userSpaceOnUse" color-interpolation-filters="sRGB">
<feFlood flood-opacity="0" result="BackgroundImageFix"/>
<feBlend mode="normal" in="SourceGraphic" in2="BackgroundImageFix" result="shape"/>
<feColorMatrix in="SourceAlpha" type="matrix" values="0 0 0 0 0 0 0 0 0 0 0 0 0 0 0 0 0 0 127 0" result="hardAlpha"/>
<feOffset dx="0.608733" dy="0.608733"/>
<feGaussianBlur stdDeviation="0.304366"/>
<feComposite in2="hardAlpha" operator="arithmetic" k2="-1" k3="1"/>
<feColorMatrix type="matrix" values="0 0 0 0 1 0 0 0 0 1 0 0 0 0 1 0 0 0 0.2 0"/>
<feBlend mode="normal" in2="shape" result="effect1_innerShadow"/>
<feColorMatrix in="SourceAlpha" type="matrix" values="0 0 0 0 0 0 0 0 0 0 0 0 0 0 0 0 0 0 127 0" result="hardAlpha"/>
<feOffset dx="-0.608733" dy="-0.608733"/>
<feGaussianBlur stdDeviation="0.304366"/>
<feComposite in2="hardAlpha" operator="arithmetic" k2="-1" k3="1"/>
<feColorMatrix type="matrix" values="0 0 0 0 0 0 0 0 0 0 0 0 0 0 0 0 0 0 0.05 0"/>
<feBlend mode="normal" in2="effect1_innerShadow" result="effect2_innerShadow"/>
</filter>
<filter id="filter1_ii" x="18" y="24.3532" width="41.5179" height="26.6468" filterUnits="userSpaceOnUse" color-interpolation-filters="sRGB">
<feFlood flood-opacity="0" result="BackgroundImageFix"/>
<feBlend mode="normal" in="SourceGraphic" in2="BackgroundImageFix" result="shape"/>
<feColorMatrix in="SourceAlpha" type="matrix" values="0 0 0 0 0 0 0 0 0 0 0 0 0 0 0 0 0 0 127 0" result="hardAlpha"/>
<feOffset dy="-1.63106"/>
<feGaussianBlur stdDeviation="0.611646"/>
<feComposite in2="hardAlpha" operator="arithmetic" k2="-1" k3="1"/>
<feColorMatrix type="matrix" values="0 0 0 0 0.690196 0 0 0 0 0.776941 0 0 0 0 1 0 0 0 0.8 0"/>
<feBlend mode="normal" in2="shape" result="effect1_innerShadow"/>
<feColorMatrix in="SourceAlpha" type="matrix" values="0 0 0 0 0 0 0 0 0 0 0 0 0 0 0 0 0 0 127 0" result="hardAlpha"/>
<feOffset dy="-1.64684"/>
<feGaussianBlur stdDeviation="1.09789"/>
<feComposite in2="hardAlpha" operator="arithmetic" k2="-1" k3="1"/>
<feColorMatrix type="matrix" values="0 0 0 0 0.766667 0 0 0 0 0.93 0 0 0 0 1 0 0 0 0.4 0"/>
<feBlend mode="normal" in2="effect1_innerShadow" result="effect2_innerShadow"/>
</filter>
<linearGradient id="paint0_linear" x1="39" y1="0" x2="39" y2="78" gradientUnits="userSpaceOnUse">
<stop stop-color="#6683E7"/>
<stop offset="1" stop-color="#4968D7"/>
</linearGradient>
<linearGradient id="paint1_linear" x1="39" y1="0" x2="39" y2="78" gradientUnits="userSpaceOnUse">
<stop offset="0.328125" stop-color="white"/>
<stop offset="1" stop-opacity="0.1"/>
</linearGradient>
</defs>
</svg>
