<?xml version="1.0" encoding="utf-8"?>
<!-- Generator: Adobe Illustrator 26.0.2, SVG Export Plug-In . SVG Version: 6.00 Build 0)  -->
<svg version="1.0" id="Layer_1" xmlns:bx="https://boxy-svg.com"
     xmlns="http://www.w3.org/2000/svg" xmlns:xlink="http://www.w3.org/1999/xlink" x="0px" y="0px" width="78px" height="78px"
     viewBox="0 0 78 78" enable-background="new 0 0 78 78" xml:space="preserve">
<g>

		<linearGradient id="SVGID_1_" gradientUnits="userSpaceOnUse" x1="39" y1="80" x2="39" y2="2" gradientTransform="matrix(1 0 0 -1 0 80)">
		<stop  offset="0" style="stop-color:#6683E7"/>
          <stop  offset="1" style="stop-color:#4968D7"/>
	</linearGradient>
  <path fill="url(#SVGID_1_)" d="M17,0H61c9.4,0,17,7.6,17,17V61c0,9.4-7.6,17-17,17H17C7.6,78,0,70.4,0,61V17C0,7.6,7.6,0,17,0z"/>

  <linearGradient id="SVGID_00000142872549986507650150000006340470644534370731_" gradientUnits="userSpaceOnUse" x1="39" y1="80" x2="39" y2="2" gradientTransform="matrix(1 0 0 -1 0 80)">
		<stop  offset="0.3281" style="stop-color:#FFFFFF"/>
    <stop  offset="1" style="stop-color:#000000;stop-opacity:0.1"/>
	</linearGradient>
  <path fill="url(#SVGID_00000142872549986507650150000006340470644534370731_)" fill-opacity="0.2" d="M17,0H61c9.4,0,17,7.6,17,17
		V61c0,9.4-7.6,17-17,17H17C7.6,78,0,70.4,0,61V17C0,7.6,7.6,0,17,0z"/>
</g>
  <g>
	<g>
		<path fill="#FFFFFF" d="M60.4,44.2V34.1l5.9,1c0,0,1.3,1.4,1.3,4.1c0,2.7-1.3,4.1-1.3,4.1L60.4,44.2z"/>
	</g>
    <g>
		<path fill="#FFFFFF" d="M17.5,44.2V34.1l-5.9,1c0,0-1.3,1.4-1.3,4.1c0,2.7,1.3,4.1,1.3,4.1L17.5,44.2z"/>
	</g>
    <g>
		<path fill="#FFFFFF" d="M31.1,21.8h15.7c9.5,0,17.1,7.7,17.1,17.1v0c0,9.5-7.7,17.1-17.1,17.1H31.1c-9.5,0-17.1-7.7-17.1-17.1v0
			C14,29.5,21.6,21.8,31.1,21.8z"/>
	</g>
    <g>

			<linearGradient id="SVGID_00000132076170100420646050000000911223763388962472_" gradientUnits="userSpaceOnUse" x1="38.912" y1="51.8215" x2="38.912" y2="30.2916" gradientTransform="matrix(1 0 0 -1 0 80)">
			<stop  offset="0" style="stop-color:#181927"/>
              <stop  offset="1" style="stop-color:#1D2433"/>
		</linearGradient>
      <path fill="url(#SVGID_00000132076170100420646050000000911223763388962472_)" d="M32.6,28.2h12.7C51.2,28.2,56,33,56,38.9v0
			c0,5.9-4.8,10.8-10.8,10.8H32.6c-5.9,0-10.8-4.8-10.8-10.8v0C21.8,33,26.6,28.2,32.6,28.2z"/>
	</g>
    <g>
		<path fill="#0047FF" d="M52.1,38.9c0,1.8-1.4,3.2-3.2,3.2c-1.8,0-3.9-1.1-3.9-2.8c0-1.8,2.1-3.5,3.9-3.5
			C50.7,35.8,52.1,37.2,52.1,38.9z"/>

      <linearGradient id="SVGID_00000116218810710784513370000010791862578881270436_" gradientUnits="userSpaceOnUse" x1="48.6038" y1="46.5216" x2="48.6038" y2="39.2896" gradientTransform="matrix(1 0 0 -1 0 80)">
			<stop  offset="5.200000e-03" style="stop-color:#FFFFFF;stop-opacity:8.000000e-02"/>
        <stop  offset="8.520000e-02" style="stop-color:#000000;stop-opacity:8.000000e-02"/>
        <stop  offset="0.337" style="stop-color:#FFFFFF;stop-opacity:0.1"/>
        <stop  offset="0.6609" style="stop-color:#FFFFFF;stop-opacity:0.1"/>
        <stop  offset="1" style="stop-color:#000000;stop-opacity:0.1"/>
		</linearGradient>
      <path fill="url(#SVGID_00000116218810710784513370000010791862578881270436_)" d="M52.1,38.9c0,1.8-1.4,3.2-3.2,3.2
			c-1.8,0-3.9-1.1-3.9-2.8c0-1.8,2.1-3.5,3.9-3.5C50.7,35.8,52.1,37.2,52.1,38.9z"/>

      <linearGradient id="SVGID_00000099627467018735630500000002897007374461131655_" gradientUnits="userSpaceOnUse" x1="48.6038" y1="44.2371" x2="48.6038" y2="37.876" gradientTransform="matrix(1 0 0 -1 0 80)">
			<stop  offset="0" style="stop-color:#526EFF"/>
        <stop  offset="1" style="stop-color:#FFFFFF;stop-opacity:0"/>
		</linearGradient>
      <path fill="url(#SVGID_00000099627467018735630500000002897007374461131655_)" fill-opacity="0.7" d="M52.1,38.9
			c0,1.8-1.4,3.2-3.2,3.2c-1.8,0-3.9-1.1-3.9-2.8c0-1.8,2.1-3.5,3.9-3.5C50.7,35.8,52.1,37.2,52.1,38.9z"/>
	</g>
    <path fill="none" stroke="#1F295B" stroke-width="1.3565" d="M48.9,42.8c2.1,0,3.9-1.7,3.9-3.9c0-2.1-1.7-3.9-3.9-3.9
		c-1.1,0-2.2,0.5-3,1.3c-0.8,0.7-1.5,1.8-1.5,2.9c0,1.2,0.7,2.1,1.6,2.6C46.8,42.5,47.9,42.8,48.9,42.8z"/>
    <g>
		<path fill="#0047FF" d="M32.7,39.3c0,1.8-2.1,2.8-3.9,2.8s-3.2-1.4-3.2-3.2c0-1.8,1.4-3.2,3.2-3.2S32.7,37.5,32.7,39.3z"/>

      <linearGradient id="SVGID_00000059310986023752106750000016150965073500325000_" gradientUnits="userSpaceOnUse" x1="29.2201" y1="46.5216" x2="29.2201" y2="39.2896" gradientTransform="matrix(1 0 0 -1 0 80)">
			<stop  offset="5.200000e-03" style="stop-color:#FFFFFF;stop-opacity:8.000000e-02"/>
        <stop  offset="8.520000e-02" style="stop-color:#000000;stop-opacity:8.000000e-02"/>
        <stop  offset="0.337" style="stop-color:#FFFFFF;stop-opacity:0.1"/>
        <stop  offset="0.6609" style="stop-color:#FFFFFF;stop-opacity:0.1"/>
        <stop  offset="1" style="stop-color:#000000;stop-opacity:0.1"/>
		</linearGradient>
      <path fill="url(#SVGID_00000059310986023752106750000016150965073500325000_)" d="M32.7,39.3c0,1.8-2.1,2.8-3.9,2.8
			s-3.2-1.4-3.2-3.2c0-1.8,1.4-3.2,3.2-3.2S32.7,37.5,32.7,39.3z"/>

      <linearGradient id="SVGID_00000052815748582727273450000008300807296522958997_" gradientUnits="userSpaceOnUse" x1="29.2201" y1="44.2371" x2="29.2201" y2="37.876" gradientTransform="matrix(1 0 0 -1 0 80)">
			<stop  offset="0" style="stop-color:#526EFF"/>
        <stop  offset="1" style="stop-color:#FFFFFF;stop-opacity:0"/>
		</linearGradient>
      <path fill="url(#SVGID_00000052815748582727273450000008300807296522958997_)" fill-opacity="0.7" d="M32.7,39.3
			c0,1.8-2.1,2.8-3.9,2.8s-3.2-1.4-3.2-3.2c0-1.8,1.4-3.2,3.2-3.2S32.7,37.5,32.7,39.3z"/>
	</g>
    <path fill="none" stroke="#1F295B" stroke-width="1.3565" d="M28.9,42.8c1,0,2.1-0.3,3-0.9c0.9-0.6,1.6-1.5,1.6-2.6
		c0-1.1-0.7-2.2-1.5-2.9c-0.8-0.7-2-1.3-3-1.3c-2.1,0-3.9,1.7-3.9,3.9C25,41.1,26.7,42.8,28.9,42.8z"/>
</g>
</svg>
