<svg width="78" height="78" viewBox="0 0 78 78" fill="none" xmlns="http://www.w3.org/2000/svg">
<g filter="url(#filter0_ii)">
<rect width="78" height="78" rx="16.9565" fill="url(#paint0_linear)"/>
<rect width="78" height="78" rx="16.9565" fill="url(#paint1_linear)" fill-opacity="0.2" style="mix-blend-mode:soft-light"/>
</g>
<g filter="url(#filter1_dii)">
<path d="M54.0725 16.3913H23.9275C19.7726 16.3913 16.3913 19.7726 16.3913 23.9275V31.4638V36.4879V54.0725C16.3913 58.2274 19.7726 61.6087 23.9275 61.6087H54.0725C58.2274 61.6087 61.6087 58.2274 61.6087 54.0725V36.4879V31.4638V23.9275C61.6087 19.7726 58.2274 16.3913 54.0725 16.3913Z" fill="#7DA2FF"/>
</g>
<g filter="url(#filter2_dii)">
<path d="M51.1954 43.3049C49.8181 42.5166 48.1394 42.7281 47.0083 43.7151L45.2907 42.7313V37.8699C45.2907 37.3667 45.0185 36.8989 44.5778 36.6489L40.1703 34.1397V31.9893C41.6027 31.5086 42.6333 30.1691 42.6333 28.5892C42.6333 26.6055 41.0097 25 39.0036 25C36.9976 25 35.3739 26.6055 35.3739 28.5892C35.3739 30.1691 36.4045 31.5086 37.8369 31.9893V34.1397L33.4295 36.6489C32.9887 36.8989 32.7165 37.3667 32.7165 37.8699V42.7281L30.9989 43.7119C29.8679 42.7249 28.1859 42.5134 26.8118 43.3017C25.078 44.2952 24.4882 46.4872 25.4831 48.2017C26.4812 49.9161 28.6882 50.5058 30.4155 49.5156C31.7929 48.7272 32.4475 47.1762 32.1526 45.7084L33.7309 44.8015L38.2874 47.3973C38.5078 47.5223 38.7541 47.5864 39.0004 47.5864C39.2467 47.5864 39.493 47.5223 39.7133 47.3973L44.2666 44.8047L45.8449 45.7116C45.55 47.1762 46.2079 48.7304 47.582 49.5188C49.3093 50.509 51.5195 49.9225 52.5144 48.2049C53.5126 46.4872 52.9228 44.2952 51.1954 43.3049ZM29.385 47.7402C29.209 47.841 29.0145 47.9064 28.8128 47.9326C28.6111 47.9588 28.4062 47.9453 28.2098 47.8929C28.0134 47.8405 27.8295 47.7502 27.6685 47.6271C27.5076 47.5041 27.3728 47.3509 27.272 47.1762C26.8442 46.4423 27.097 45.5001 27.8391 45.0771C28.0152 44.9763 28.2096 44.9109 28.4113 44.8847C28.613 44.8585 28.8179 44.872 29.0143 44.9244C29.2107 44.9768 29.3946 45.0671 29.5556 45.1902C29.7165 45.3132 29.8513 45.4664 29.9521 45.6411C30.3799 46.375 30.1271 47.3172 29.385 47.7402ZM37.4448 28.5892C37.4531 28.1867 37.6206 27.8034 37.9115 27.5216C38.2023 27.2399 38.5932 27.0821 39.0004 27.0821C39.4075 27.0821 39.7985 27.2399 40.0893 27.5216C40.3801 27.8034 40.5476 28.1867 40.5559 28.5892C40.5476 28.9917 40.3801 29.375 40.0893 29.6568C39.7985 29.9385 39.4075 30.0964 39.0004 30.0964C38.5932 30.0964 38.2023 29.9385 37.9115 29.6568C37.6206 29.375 37.4531 28.9917 37.4448 28.5892ZM42.9541 42.8883L39.0004 45.1412L35.0466 42.8883V38.389L39.0004 36.1362L42.9541 38.389V42.8883ZM50.7288 47.1794C50.301 47.9132 49.3547 48.1664 48.6158 47.7434C47.8769 47.3204 47.6209 46.3782 48.0486 45.6443C48.4764 44.9105 49.4227 44.6573 50.1616 45.0803C50.9038 45.5033 51.1565 46.4423 50.7288 47.1794Z" fill="white"/>
</g>
<defs>
<filter id="filter0_ii" x="-0.608733" y="-0.608733" width="79.2175" height="79.2175" filterUnits="userSpaceOnUse" color-interpolation-filters="sRGB">
<feFlood flood-opacity="0" result="BackgroundImageFix"/>
<feBlend mode="normal" in="SourceGraphic" in2="BackgroundImageFix" result="shape"/>
<feColorMatrix in="SourceAlpha" type="matrix" values="0 0 0 0 0 0 0 0 0 0 0 0 0 0 0 0 0 0 127 0" result="hardAlpha"/>
<feOffset dx="0.608733" dy="0.608733"/>
<feGaussianBlur stdDeviation="0.304366"/>
<feComposite in2="hardAlpha" operator="arithmetic" k2="-1" k3="1"/>
<feColorMatrix type="matrix" values="0 0 0 0 1 0 0 0 0 1 0 0 0 0 1 0 0 0 0.2 0"/>
<feBlend mode="normal" in2="shape" result="effect1_innerShadow"/>
<feColorMatrix in="SourceAlpha" type="matrix" values="0 0 0 0 0 0 0 0 0 0 0 0 0 0 0 0 0 0 127 0" result="hardAlpha"/>
<feOffset dx="-0.608733" dy="-0.608733"/>
<feGaussianBlur stdDeviation="0.304366"/>
<feComposite in2="hardAlpha" operator="arithmetic" k2="-1" k3="1"/>
<feColorMatrix type="matrix" values="0 0 0 0 0 0 0 0 0 0 0 0 0 0 0 0 0 0 0.05 0"/>
<feBlend mode="normal" in2="effect1_innerShadow" result="effect2_innerShadow"/>
</filter>
<filter id="filter1_dii" x="8.62775" y="12.8624" width="60.7445" height="60.7445" filterUnits="userSpaceOnUse" color-interpolation-filters="sRGB">
<feFlood flood-opacity="0" result="BackgroundImageFix"/>
<feColorMatrix in="SourceAlpha" type="matrix" values="0 0 0 0 0 0 0 0 0 0 0 0 0 0 0 0 0 0 127 0"/>
<feOffset dy="4.23466"/>
<feGaussianBlur stdDeviation="3.88177"/>
<feColorMatrix type="matrix" values="0 0 0 0 0 0 0 0 0 0.284091 0 0 0 0 1 0 0 0 0.35 0"/>
<feBlend mode="normal" in2="BackgroundImageFix" result="effect1_dropShadow"/>
<feBlend mode="normal" in="SourceGraphic" in2="effect1_dropShadow" result="shape"/>
<feColorMatrix in="SourceAlpha" type="matrix" values="0 0 0 0 0 0 0 0 0 0 0 0 0 0 0 0 0 0 127 0" result="hardAlpha"/>
<feOffset dy="-2.82311"/>
<feGaussianBlur stdDeviation="1.76444"/>
<feComposite in2="hardAlpha" operator="arithmetic" k2="-1" k3="1"/>
<feColorMatrix type="matrix" values="0 0 0 0 0.0716667 0 0 0 0 0.136167 0 0 0 0 0.716667 0 0 0 0.35 0"/>
<feBlend mode="normal" in2="shape" result="effect2_innerShadow"/>
<feColorMatrix in="SourceAlpha" type="matrix" values="0 0 0 0 0 0 0 0 0 0 0 0 0 0 0 0 0 0 127 0" result="hardAlpha"/>
<feOffset dy="-1.05867"/>
<feGaussianBlur stdDeviation="0.705777"/>
<feComposite in2="hardAlpha" operator="arithmetic" k2="-1" k3="1"/>
<feColorMatrix type="matrix" values="0 0 0 0 1 0 0 0 0 1 0 0 0 0 1 0 0 0 0.25 0"/>
<feBlend mode="normal" in2="effect2_innerShadow" result="effect3_innerShadow"/>
</filter>
<filter id="filter2_dii" x="18.3039" y="21.9563" width="41.3921" height="38.3921" filterUnits="userSpaceOnUse" color-interpolation-filters="sRGB">
<feFlood flood-opacity="0" result="BackgroundImageFix"/>
<feColorMatrix in="SourceAlpha" type="matrix" values="0 0 0 0 0 0 0 0 0 0 0 0 0 0 0 0 0 0 127 0"/>
<feOffset dy="3.6524"/>
<feGaussianBlur stdDeviation="3.34803"/>
<feColorMatrix type="matrix" values="0 0 0 0 0 0 0 0 0 0.0758334 0 0 0 0 0.758333 0 0 0 0.3 0"/>
<feBlend mode="normal" in2="BackgroundImageFix" result="effect1_dropShadow"/>
<feBlend mode="normal" in="SourceGraphic" in2="effect1_dropShadow" result="shape"/>
<feColorMatrix in="SourceAlpha" type="matrix" values="0 0 0 0 0 0 0 0 0 0 0 0 0 0 0 0 0 0 127 0" result="hardAlpha"/>
<feOffset dy="-1.8087"/>
<feGaussianBlur stdDeviation="1.13043"/>
<feComposite in2="hardAlpha" operator="arithmetic" k2="-1" k3="1"/>
<feColorMatrix type="matrix" values="0 0 0 0 0.690196 0 0 0 0 0.85098 0 0 0 0 1 0 0 0 1 0"/>
<feBlend mode="normal" in2="shape" result="effect2_innerShadow"/>
<feColorMatrix in="SourceAlpha" type="matrix" values="0 0 0 0 0 0 0 0 0 0 0 0 0 0 0 0 0 0 127 0" result="hardAlpha"/>
<feOffset dy="-0.913099"/>
<feGaussianBlur stdDeviation="0.608733"/>
<feComposite in2="hardAlpha" operator="arithmetic" k2="-1" k3="1"/>
<feColorMatrix type="matrix" values="0 0 0 0 1 0 0 0 0 1 0 0 0 0 1 0 0 0 0.75 0"/>
<feBlend mode="normal" in2="effect2_innerShadow" result="effect3_innerShadow"/>
</filter>
<linearGradient id="paint0_linear" x1="39" y1="0" x2="39" y2="78" gradientUnits="userSpaceOnUse">
<stop stop-color="#CDE7FF"/>
<stop offset="1" stop-color="#C1E1FF"/>
</linearGradient>
<linearGradient id="paint1_linear" x1="39" y1="0" x2="39" y2="78" gradientUnits="userSpaceOnUse">
<stop offset="0.328125" stop-color="white"/>
<stop offset="1" stop-opacity="0.1"/>
</linearGradient>
</defs>
</svg>
