<svg width="52" height="53" viewBox="0 0 52 53" fill="none" xmlns="http://www.w3.org/2000/svg">
<g filter="url(#filter0_ii)">
<rect width="52" height="52" rx="11" fill="url(#paint0_linear)"/>
<rect width="52" height="52" rx="11" fill="url(#paint1_linear)" fill-opacity="0.2" style="mix-blend-mode:soft-light"/>
</g>
<g filter="url(#filter1_d)">
<g clip-path="url(#clip0)">
<g filter="url(#filter2_dii)">
<rect x="11.9826" y="14.9971" width="16.0522" height="22.9101" fill="#5F84E1"/>
</g>
<mask id="mask0" mask-type="alpha" maskUnits="userSpaceOnUse" x="16" y="11" width="25" height="30">
<path d="M18.6522 11.3036L30.736 11.3036C31.5686 11.3036 32.3698 11.6217 32.9757 12.1927L39.6697 18.501C40.3245 19.1181 40.6957 19.978 40.6957 20.8777L40.6957 38.2457C40.6957 39.5984 39.5991 40.695 38.2464 40.695L18.6522 40.695C17.2995 40.695 16.2029 39.5984 16.2029 38.2457L16.2029 13.7529C16.2029 12.4002 17.2995 11.3036 18.6522 11.3036Z" fill="#4D72D3"/>
</mask>
<g mask="url(#mask0)">
<g filter="url(#filter3_dii)">
<path d="M18.6522 11.3036L30.736 11.3036C31.5686 11.3036 32.3698 11.6217 32.9757 12.1927L39.6697 18.501C40.3245 19.1181 40.6957 19.978 40.6957 20.8777L40.6957 38.2457C40.6957 39.5984 39.5991 40.695 38.2464 40.695L18.6522 40.695C17.2995 40.695 16.2029 39.5984 16.2029 38.2457L16.2029 13.7529C16.2029 12.4002 17.2995 11.3036 18.6522 11.3036Z" fill="#7DA2FF"/>
</g>
<g filter="url(#filter4_dii)">
<path fill-rule="evenodd" clip-rule="evenodd" d="M35.7971 18.6515L40.6956 18.6515L40.6956 11.3037L33.3478 11.3037L33.3478 16.2022C33.3478 17.5549 34.4444 18.6515 35.7971 18.6515Z" fill="white"/>
</g>
</g>
<g filter="url(#filter5_dii)">
<path d="M23.3333 23.9538C23.3333 24.1611 23.5066 24.3184 23.7194 24.3184H24.9956C25.2084 24.3184 25.3817 24.1572 25.3817 23.9576C25.3817 22.8752 26.398 21.9771 27.6664 21.9771C28.9348 21.9771 29.9511 22.8752 29.9511 23.9538C29.9511 24.9249 29.1239 25.7655 28.0091 25.9075C27.2489 26.015 26.6501 26.6867 26.6422 27.4466V28.6749C26.6422 28.886 26.8195 29.0587 27.0361 29.0587H28.2967C28.5133 29.0587 28.6906 28.886 28.6906 28.6749V28.2066C28.6906 27.9763 28.8482 27.7652 29.0727 27.6961C30.8296 27.1434 32.0271 25.6235 31.9995 23.9001C31.968 21.7698 30.0614 20.0311 27.7255 20.0004C25.3068 19.9735 23.3333 21.7506 23.3333 23.9538ZM26.4059 31.4385C26.4059 31.7642 26.5387 32.0766 26.7751 32.307C27.0115 32.5373 27.3321 32.6667 27.6664 32.6667C28.0007 32.6667 28.3214 32.5373 28.5577 32.307C28.7941 32.0766 28.927 31.7642 28.927 31.4385C28.927 31.1127 28.7941 30.8003 28.5577 30.57C28.3214 30.3396 28.0007 30.2102 27.6664 30.2102C27.3321 30.2102 27.0115 30.3396 26.7751 30.57C26.5387 30.8003 26.4059 31.1127 26.4059 31.4385Z" fill="white"/>
</g>
</g>
</g>
<defs>
<filter id="filter0_ii" x="-3.58996" y="-3.58996" width="59.1799" height="59.1799" filterUnits="userSpaceOnUse" color-interpolation-filters="sRGB">
<feFlood flood-opacity="0" result="BackgroundImageFix"/>
<feBlend mode="normal" in="SourceGraphic" in2="BackgroundImageFix" result="shape"/>
<feColorMatrix in="SourceAlpha" type="matrix" values="0 0 0 0 0 0 0 0 0 0 0 0 0 0 0 0 0 0 127 0" result="hardAlpha"/>
<feOffset dx="3.58996" dy="3.58996"/>
<feGaussianBlur stdDeviation="1.79498"/>
<feComposite in2="hardAlpha" operator="arithmetic" k2="-1" k3="1"/>
<feColorMatrix type="matrix" values="0 0 0 0 1 0 0 0 0 1 0 0 0 0 1 0 0 0 0.2 0"/>
<feBlend mode="normal" in2="shape" result="effect1_innerShadow"/>
<feColorMatrix in="SourceAlpha" type="matrix" values="0 0 0 0 0 0 0 0 0 0 0 0 0 0 0 0 0 0 127 0" result="hardAlpha"/>
<feOffset dx="-3.58996" dy="-3.58996"/>
<feGaussianBlur stdDeviation="1.79498"/>
<feComposite in2="hardAlpha" operator="arithmetic" k2="-1" k3="1"/>
<feColorMatrix type="matrix" values="0 0 0 0 0 0 0 0 0 0 0 0 0 0 0 0 0 0 0.05 0"/>
<feBlend mode="normal" in2="effect1_innerShadow" result="effect2_innerShadow"/>
</filter>
<filter id="filter1_d" x="1.88396" y="4.14495" width="48.2319" height="48.2319" filterUnits="userSpaceOnUse" color-interpolation-filters="sRGB">
<feFlood flood-opacity="0" result="BackgroundImageFix"/>
<feColorMatrix in="SourceAlpha" type="matrix" values="0 0 0 0 0 0 0 0 0 0 0 0 0 0 0 0 0 0 127 0"/>
<feOffset dy="2.26087"/>
<feGaussianBlur stdDeviation="2.26087"/>
<feColorMatrix type="matrix" values="0 0 0 0 0.0167014 0 0 0 0 0.308333 0 0 0 0 0.273337 0 0 0 0.45 0"/>
<feBlend mode="normal" in2="BackgroundImageFix" result="effect1_dropShadow"/>
<feBlend mode="normal" in="SourceGraphic" in2="effect1_dropShadow" result="shape"/>
</filter>
<filter id="filter2_dii" x="6.80688" y="12.6445" width="26.4036" height="33.2615" filterUnits="userSpaceOnUse" color-interpolation-filters="sRGB">
<feFlood flood-opacity="0" result="BackgroundImageFix"/>
<feColorMatrix in="SourceAlpha" type="matrix" values="0 0 0 0 0 0 0 0 0 0 0 0 0 0 0 0 0 0 127 0"/>
<feOffset dy="2.82311"/>
<feGaussianBlur stdDeviation="2.58785"/>
<feColorMatrix type="matrix" values="0 0 0 0 0 0 0 0 0 0.284091 0 0 0 0 1 0 0 0 0.35 0"/>
<feBlend mode="normal" in2="BackgroundImageFix" result="effect1_dropShadow"/>
<feBlend mode="normal" in="SourceGraphic" in2="effect1_dropShadow" result="shape"/>
<feColorMatrix in="SourceAlpha" type="matrix" values="0 0 0 0 0 0 0 0 0 0 0 0 0 0 0 0 0 0 127 0" result="hardAlpha"/>
<feOffset dy="-1.88207"/>
<feGaussianBlur stdDeviation="1.1763"/>
<feComposite in2="hardAlpha" operator="arithmetic" k2="-1" k3="1"/>
<feColorMatrix type="matrix" values="0 0 0 0 0.0716667 0 0 0 0 0.136167 0 0 0 0 0.716667 0 0 0 0.35 0"/>
<feBlend mode="normal" in2="shape" result="effect2_innerShadow"/>
<feColorMatrix in="SourceAlpha" type="matrix" values="0 0 0 0 0 0 0 0 0 0 0 0 0 0 0 0 0 0 127 0" result="hardAlpha"/>
<feOffset dy="-0.705777"/>
<feGaussianBlur stdDeviation="0.470518"/>
<feComposite in2="hardAlpha" operator="arithmetic" k2="-1" k3="1"/>
<feColorMatrix type="matrix" values="0 0 0 0 1 0 0 0 0 1 0 0 0 0 1 0 0 0 0.25 0"/>
<feBlend mode="normal" in2="effect2_innerShadow" result="effect3_innerShadow"/>
</filter>
<filter id="filter3_dii" x="11.0272" y="8.95106" width="34.8442" height="39.7427" filterUnits="userSpaceOnUse" color-interpolation-filters="sRGB">
<feFlood flood-opacity="0" result="BackgroundImageFix"/>
<feColorMatrix in="SourceAlpha" type="matrix" values="0 0 0 0 0 0 0 0 0 0 0 0 0 0 0 0 0 0 127 0"/>
<feOffset dy="2.82311"/>
<feGaussianBlur stdDeviation="2.58785"/>
<feColorMatrix type="matrix" values="0 0 0 0 0 0 0 0 0 0.284091 0 0 0 0 1 0 0 0 0.35 0"/>
<feBlend mode="normal" in2="BackgroundImageFix" result="effect1_dropShadow"/>
<feBlend mode="normal" in="SourceGraphic" in2="effect1_dropShadow" result="shape"/>
<feColorMatrix in="SourceAlpha" type="matrix" values="0 0 0 0 0 0 0 0 0 0 0 0 0 0 0 0 0 0 127 0" result="hardAlpha"/>
<feOffset dy="-1.88207"/>
<feGaussianBlur stdDeviation="1.1763"/>
<feComposite in2="hardAlpha" operator="arithmetic" k2="-1" k3="1"/>
<feColorMatrix type="matrix" values="0 0 0 0 0.0716667 0 0 0 0 0.136167 0 0 0 0 0.716667 0 0 0 0.35 0"/>
<feBlend mode="normal" in2="shape" result="effect2_innerShadow"/>
<feColorMatrix in="SourceAlpha" type="matrix" values="0 0 0 0 0 0 0 0 0 0 0 0 0 0 0 0 0 0 127 0" result="hardAlpha"/>
<feOffset dy="-0.705777"/>
<feGaussianBlur stdDeviation="0.470518"/>
<feComposite in2="hardAlpha" operator="arithmetic" k2="-1" k3="1"/>
<feColorMatrix type="matrix" values="0 0 0 0 1 0 0 0 0 1 0 0 0 0 1 0 0 0 0.25 0"/>
<feBlend mode="normal" in2="effect2_innerShadow" result="effect3_innerShadow"/>
</filter>
<filter id="filter4_dii" x="28.8838" y="9.27454" width="16.2759" height="16.2759" filterUnits="userSpaceOnUse" color-interpolation-filters="sRGB">
<feFlood flood-opacity="0" result="BackgroundImageFix"/>
<feColorMatrix in="SourceAlpha" type="matrix" values="0 0 0 0 0 0 0 0 0 0 0 0 0 0 0 0 0 0 127 0"/>
<feOffset dy="2.43493"/>
<feGaussianBlur stdDeviation="2.23202"/>
<feColorMatrix type="matrix" values="0 0 0 0 0 0 0 0 0 0.0450001 0 0 0 0 0.45 0 0 0 0.25 0"/>
<feBlend mode="normal" in2="BackgroundImageFix" result="effect1_dropShadow"/>
<feBlend mode="normal" in="SourceGraphic" in2="effect1_dropShadow" result="shape"/>
<feColorMatrix in="SourceAlpha" type="matrix" values="0 0 0 0 0 0 0 0 0 0 0 0 0 0 0 0 0 0 127 0" result="hardAlpha"/>
<feOffset dy="-1.62329"/>
<feGaussianBlur stdDeviation="1.01455"/>
<feComposite in2="hardAlpha" operator="arithmetic" k2="-1" k3="1"/>
<feColorMatrix type="matrix" values="0 0 0 0 0.690196 0 0 0 0 0.776941 0 0 0 0 1 0 0 0 1 0"/>
<feBlend mode="normal" in2="shape" result="effect2_innerShadow"/>
<feColorMatrix in="SourceAlpha" type="matrix" values="0 0 0 0 0 0 0 0 0 0 0 0 0 0 0 0 0 0 127 0" result="hardAlpha"/>
<feOffset dy="-0.301449"/>
<feGaussianBlur stdDeviation="0.405822"/>
<feComposite in2="hardAlpha" operator="arithmetic" k2="-1" k3="1"/>
<feColorMatrix type="matrix" values="0 0 0 0 1 0 0 0 0 1 0 0 0 0 1 0 0 0 0.75 0"/>
<feBlend mode="normal" in2="effect2_innerShadow" result="effect3_innerShadow"/>
</filter>
<filter id="filter5_dii" x="18.8693" y="17.971" width="17.5947" height="21.5947" filterUnits="userSpaceOnUse" color-interpolation-filters="sRGB">
<feFlood flood-opacity="0" result="BackgroundImageFix"/>
<feColorMatrix in="SourceAlpha" type="matrix" values="0 0 0 0 0 0 0 0 0 0 0 0 0 0 0 0 0 0 127 0"/>
<feOffset dy="2.43493"/>
<feGaussianBlur stdDeviation="2.23202"/>
<feColorMatrix type="matrix" values="0 0 0 0 0 0 0 0 0 0.0450001 0 0 0 0 0.45 0 0 0 0.65 0"/>
<feBlend mode="normal" in2="BackgroundImageFix" result="effect1_dropShadow"/>
<feBlend mode="normal" in="SourceGraphic" in2="effect1_dropShadow" result="shape"/>
<feColorMatrix in="SourceAlpha" type="matrix" values="0 0 0 0 0 0 0 0 0 0 0 0 0 0 0 0 0 0 127 0" result="hardAlpha"/>
<feOffset dy="-0.904348"/>
<feGaussianBlur stdDeviation="1.01455"/>
<feComposite in2="hardAlpha" operator="arithmetic" k2="-1" k3="1"/>
<feColorMatrix type="matrix" values="0 0 0 0 0.57 0 0 0 0 0.6308 0 0 0 0 0.95 0 0 0 1 0"/>
<feBlend mode="normal" in2="shape" result="effect2_innerShadow"/>
<feColorMatrix in="SourceAlpha" type="matrix" values="0 0 0 0 0 0 0 0 0 0 0 0 0 0 0 0 0 0 127 0" result="hardAlpha"/>
<feOffset dy="-0.608733"/>
<feGaussianBlur stdDeviation="0.405822"/>
<feComposite in2="hardAlpha" operator="arithmetic" k2="-1" k3="1"/>
<feColorMatrix type="matrix" values="0 0 0 0 1 0 0 0 0 1 0 0 0 0 1 0 0 0 0.75 0"/>
<feBlend mode="normal" in2="effect2_innerShadow" result="effect3_innerShadow"/>
</filter>
<linearGradient id="paint0_linear" x1="26" y1="0" x2="26" y2="52" gradientUnits="userSpaceOnUse">
<stop stop-color="#FFE8A5"/>
<stop offset="1" stop-color="#FFE494"/>
</linearGradient>
<linearGradient id="paint1_linear" x1="26" y1="0" x2="26" y2="52" gradientUnits="userSpaceOnUse">
<stop offset="0.328125" stop-color="white"/>
<stop offset="1" stop-opacity="0.1"/>
</linearGradient>
<clipPath id="clip0">
<rect width="39.1884" height="39.1884" fill="white" transform="matrix(1 -8.74228e-08 -8.74228e-08 -1 6.4057 45.5942)"/>
</clipPath>
</defs>
</svg>
